<?xml version="1.0" encoding="UTF-8"?>
<svg id="Calque_1" data-name="Calque 1" xmlns="http://www.w3.org/2000/svg" viewBox="0 0 283.46 89.18">
  <defs>
    <style>
      .cls-1 {
        fill: #e72c63;
      }

      .cls-1, .cls-2 {
        stroke-width: 0px;
      }

      .cls-2 {
        fill: #29235c;
      }
    </style>
  </defs>
  <g>
    <path class="cls-2" d="M78.59,35.09c0-9.07,5.36-13.39,13.21-13.39s13.15,4.32,13.15,13.51v.18h-7.18v-.3c0-4.87-2.43-6.64-5.97-6.64s-5.97,1.77-5.97,6.64v17.47h-7.24v-17.47Z"/>
    <path class="cls-2" d="M109.62,38.13v-15.65h7.24v15.65c0,5.72,3.04,8.46,7.61,8.46s7.61-2.74,7.61-8.46v-15.65h7.24v15.65c0,10.04-5.97,15.22-14.85,15.22s-14.85-5.11-14.85-15.22Z"/>
    <path class="cls-2" d="M144.9,36.92c0-10.04,5.97-15.22,14.85-15.22s14.85,5.11,14.85,15.22v15.64h-7.24v-15.64c0-5.72-3.04-8.46-7.61-8.46s-7.61,2.74-7.61,8.46v15.64h-7.24v-15.64Z"/>
    <path class="cls-2" d="M179.35,37.52c0-9.13,6.7-15.83,16.19-15.83s16.07,6.7,16.07,15.83v2.56h-24.66c.97,4.38,4.32,6.7,8.58,6.7,3.23,0,5.6-.91,7.12-2.86h7.73c-2.25,5.72-7.73,9.44-14.85,9.44-9.5,0-16.19-6.7-16.19-15.83ZM203.95,34.3c-1.16-4.02-4.44-6.03-8.4-6.03s-7.24,2.07-8.4,6.03h16.8Z"/>
    <path class="cls-2" d="M215.53,37.83c0-9.56,6.7-16.13,16.25-16.13s16.01,6.39,16.01,16.07v14.79h-6.64v-5.9c-1.83,4.44-5.91,6.7-10.65,6.7-7.3,0-14.98-5.24-14.98-15.52ZM240.55,37.52c0-5.3-3.53-9.07-8.83-9.07s-8.89,3.77-8.89,9.07,3.59,9.07,8.89,9.07,8.83-3.77,8.83-9.07Z"/>
    <path class="cls-2" d="M253.76,38.13v-15.65h7.24v15.65c0,5.72,3.04,8.46,7.61,8.46s7.61-2.74,7.61-8.46v-15.65h7.24v15.65c0,10.04-5.97,15.22-14.85,15.22s-14.85-5.11-14.85-15.22Z"/>
    <g>
      <path class="cls-2" d="M63.51,64.44h9.82c5.92,0,8.53,3.38,8.53,7.98s-2.62,8.01-8.53,8.01h-6.17v8.27h-3.66v-24.26ZM73.4,76.94c3.51,0,4.77-1.93,4.77-4.53s-1.25-4.49-4.77-4.49h-6.24v9.01h6.24Z"/>
      <path class="cls-2" d="M85.73,64.44h10.07c5.77,0,8.28,3.3,8.28,7.79,0,3.64-1.65,6.49-5.34,7.46l6.2,9.01h-4.37l-5.59-8.68h-5.59v8.68h-3.66v-24.26ZM95.84,76.53c3.41,0,4.55-1.85,4.55-4.3s-1.18-4.3-4.55-4.3h-6.45v8.61h6.45Z"/>
      <path class="cls-2" d="M107.59,76.57c0-7.27,5.16-12.61,12.48-12.61s12.47,5.34,12.47,12.61-5.16,12.61-12.47,12.61-12.48-5.34-12.48-12.61ZM128.85,76.57c0-5.27-3.58-9.13-8.78-9.13s-8.78,3.86-8.78,9.13,3.58,9.13,8.78,9.13,8.78-3.86,8.78-9.13Z"/>
      <path class="cls-2" d="M141.32,67.93h-7.42v-3.49h18.53v3.49h-7.46v20.77h-3.66v-20.77Z"/>
      <path class="cls-2" d="M156.52,64.44h17.24v3.49h-13.59v6.68h11.51v3.49h-11.51v7.12h13.59v3.49h-17.24v-24.26Z"/>
      <path class="cls-2" d="M177.34,76.57c0-7.27,5.16-12.61,12.48-12.61,5.99,0,10.57,3.64,12.01,8.98h-3.87c-1.25-3.3-4.23-5.49-8.14-5.49-5.2,0-8.78,3.86-8.78,9.13s3.58,9.13,8.78,9.13c3.91,0,6.88-2.19,8.14-5.49h3.87c-1.43,5.34-6.02,8.98-12.01,8.98-7.31,0-12.48-5.34-12.48-12.61Z"/>
      <path class="cls-2" d="M210.6,67.93h-7.42v-3.49h18.53v3.49h-7.46v20.77h-3.66v-20.77Z"/>
      <path class="cls-2" d="M225.87,64.44h3.66v24.26h-3.66v-24.26Z"/>
      <path class="cls-2" d="M233.94,76.57c0-7.27,5.16-12.61,12.48-12.61s12.47,5.34,12.47,12.61-5.16,12.61-12.47,12.61-12.48-5.34-12.48-12.61ZM255.19,76.57c0-5.27-3.58-9.13-8.78-9.13s-8.78,3.86-8.78,9.13,3.58,9.13,8.78,9.13,8.78-3.86,8.78-9.13Z"/>
      <path class="cls-2" d="M262.68,74.01c0-6.16,3.55-10.05,9.89-10.05s9.93,3.9,9.93,10.05v14.69h-3.66v-14.69c0-4.08-2.15-6.57-6.27-6.57s-6.24,2.49-6.24,6.57v14.69h-3.66v-14.69Z"/>
    </g>
    <path class="cls-2" d="M41.96,0h-6.82v34.38c0,10.45,8.51,18.96,18.96,18.96s18.96-8.51,18.96-18.96-8.51-18.96-18.96-18.96c-3.34,0-6.47.88-9.2,2.4v8.66c2.23-2.59,5.52-4.24,9.2-4.24,6.69,0,12.14,5.45,12.14,12.14s-5.45,12.14-12.14,12.14-12.14-5.45-12.14-12.14V0Z"/>
  </g>
  <g>
    <g>
      <path class="cls-1" d="M0,27.45h1.19c1.18,0,1.64.76,1.64,2.2,0,1.54-.44,2.38-1.7,2.38H0v-4.58ZM.83,31.36h.29c.64,0,.87-.48.87-1.71,0-1.05-.2-1.51-.86-1.51h-.3v3.22Z"/>
      <path class="cls-1" d="M5.74,30h-1.47v1.33h1.65l-.1.7h-2.35v-4.58h2.35v.72h-1.54v1.12h1.47v.71Z"/>
      <path class="cls-1" d="M6.42,27.45h1.37c.76,0,1.33.45,1.33,1.37s-.51,1.35-1.39,1.35h-.49v1.86h-.82v-4.58ZM7.23,29.52h.4c.46,0,.66-.23.66-.71s-.24-.69-.61-.69h-.45v1.4Z"/>
      <path class="cls-1" d="M10.43,27.45v3.15c0,.37.09.82.6.82s.59-.37.59-.81v-3.16h.82v3.17c0,.82-.32,1.49-1.42,1.49s-1.41-.63-1.41-1.49v-3.17h.82Z"/>
      <path class="cls-1" d="M13.99,27.45v4.58h-.82v-4.58h.82Z"/>
      <path class="cls-1" d="M15.34,30.75c.04.38.2.71.62.71s.55-.25.55-.6c0-.37-.18-.6-.76-.87-.78-.37-1.1-.7-1.1-1.39,0-.73.47-1.23,1.3-1.23,1.03,0,1.28.7,1.3,1.29h-.8c-.02-.26-.09-.65-.51-.65-.32,0-.47.21-.47.52,0,.33.15.49.68.74.82.38,1.19.74,1.19,1.51,0,.72-.45,1.32-1.41,1.32-1.05,0-1.37-.68-1.4-1.36h.81Z"/>
      <path class="cls-1" d="M19.43,32.03v-3.65c-.11.01-.37.02-.51,0v-.59c.36-.03.61-.18.78-.35h.55v4.59h-.82Z"/>
      <path class="cls-1" d="M21.79,31.05c.03.17.09.39.41.39.48,0,.5-.86.51-1.47-.16.25-.4.34-.7.34-.65,0-1.12-.47-1.12-1.39s.46-1.51,1.3-1.51c.98,0,1.34.66,1.34,2.07,0,1.81-.31,2.63-1.39,2.63-1.02,0-1.18-.73-1.2-1.05h.84ZM21.73,28.86c0,.5.16.78.49.78s.49-.22.49-.76c0-.41-.08-.8-.48-.8-.34,0-.49.32-.49.79Z"/>
      <path class="cls-1" d="M24.02,30.72c0-.66.31-.97.56-1.1-.28-.18-.45-.49-.45-.97,0-.71.4-1.24,1.25-1.24.76,0,1.2.49,1.2,1.19,0,.57-.21.86-.46,1,.28.14.55.45.55,1.12,0,.86-.45,1.38-1.37,1.38-.82,0-1.3-.49-1.3-1.37ZM25.89,30.68c0-.48-.15-.73-.53-.73s-.53.26-.53.74c0,.43.15.74.53.74.37,0,.53-.28.53-.76ZM24.89,28.66c0,.41.14.64.47.64.3,0,.45-.2.45-.62s-.14-.62-.46-.62-.47.23-.47.6Z"/>
      <path class="cls-1" d="M27.13,30.72c0-.66.31-.97.56-1.1-.28-.18-.45-.49-.45-.97,0-.71.4-1.24,1.25-1.24.76,0,1.2.49,1.2,1.19,0,.57-.21.86-.46,1,.28.14.55.45.55,1.12,0,.86-.45,1.38-1.37,1.38-.82,0-1.3-.49-1.3-1.37ZM29,30.68c0-.48-.15-.73-.53-.73s-.53.26-.53.74c0,.43.15.74.53.74.37,0,.53-.28.53-.76ZM28.01,28.66c0,.41.14.64.47.64.3,0,.45-.2.45-.62s-.14-.62-.46-.62-.47.23-.47.6Z"/>
    </g>
    <path class="cls-1" d="M8.19,34.46H0C0,64.35,24.33,88.66,54.22,88.66v-8.18c-25.38,0-46.03-20.65-46.03-46.03Z"/>
    <path class="cls-1" d="M18.94,34.46h-6.82c0,23.21,18.88,42.09,42.09,42.09v-6.82c-19.45,0-35.28-15.82-35.28-35.28Z"/>
    <path class="cls-1" d="M29.69,34.46h-5.45c0,16.53,13.45,29.98,29.98,29.98v-5.45c-13.52,0-24.52-11-24.52-24.52Z"/>
    <circle class="cls-1" cx="54.1" cy="34.18" r="6.8"/>
  </g>
</svg>